<?xml version="1.0" encoding="UTF-8"?>
<!DOCTYPE svg PUBLIC "-//W3C//DTD SVG 1.1//EN" "http://www.w3.org/Graphics/SVG/1.1/DTD/svg11.dtd">
<svg xmlns="http://www.w3.org/2000/svg" version="1.1" width="59px" height="46px" style="shape-rendering:geometricPrecision; text-rendering:geometricPrecision; image-rendering:optimizeQuality; fill-rule:evenodd; clip-rule:evenodd" xmlns:xlink="http://www.w3.org/1999/xlink">
<g><path style="opacity:0.948" fill="#fefffe" d="M 1.5,-0.5 C 19.8333,-0.5 38.1667,-0.5 56.5,-0.5C 56.8333,0.5 57.5,1.16667 58.5,1.5C 58.5,15.5 58.5,29.5 58.5,43.5C 57.5,43.8333 56.8333,44.5 56.5,45.5C 38.1667,45.5 19.8333,45.5 1.5,45.5C 1.16667,44.5 0.5,43.8333 -0.5,43.5C -0.5,29.5 -0.5,15.5 -0.5,1.5C 0.5,1.16667 1.16667,0.5 1.5,-0.5 Z M 5.5,15.5 C 7.03479,14.2121 8.70145,14.2121 10.5,15.5C 11.3953,18.8075 12.2287,22.1409 13,25.5C 14.7574,22.3157 16.2574,18.9824 17.5,15.5C 18.5,14.1667 19.5,14.1667 20.5,15.5C 18.4283,20.0501 16.7617,24.7168 15.5,29.5C 13.8333,29.5 12.1667,29.5 10.5,29.5C 9.9873,25.447 9.15397,21.447 8,17.5C 7.58309,16.244 6.74975,15.5774 5.5,15.5 Z M 23.5,14.5 C 24.5,14.5 25.5,14.5 26.5,14.5C 26.0195,19.5296 25.3529,24.5296 24.5,29.5C 23.5,29.5 22.5,29.5 21.5,29.5C 22.0582,24.4843 22.7249,19.4843 23.5,14.5 Z M 32.5,14.5 C 34.924,14.1924 37.2573,14.5258 39.5,15.5C 38.8072,17.7113 37.6406,18.0446 36,16.5C 34.5659,16.9304 33.3992,17.7638 32.5,19C 40.6354,23.5702 40.4687,27.4035 32,30.5C 30.6012,29.7734 29.1012,29.2734 27.5,29C 30.3767,28.148 33.0434,26.9814 35.5,25.5C 32.9918,23.8243 30.9918,21.6576 29.5,19C 30.3146,17.3566 31.3146,15.8566 32.5,14.5 Z M 46.5,14.5 C 47.8221,14.33 48.9887,14.6634 50,15.5C 50.7694,19.5138 51.6028,23.5138 52.5,27.5C 52.1667,28.1667 51.8333,28.8333 51.5,29.5C 50.1476,28.1038 48.4809,27.4371 46.5,27.5C 44.2288,28.6565 41.8954,29.1565 39.5,29C 41.7188,24.0638 44.0521,19.2305 46.5,14.5 Z"/></g>
<g><path style="opacity:0.537" fill="#fefffe" d="M 46.5,18.5 C 47.1174,18.6107 47.6174,18.944 48,19.5C 48.4955,21.4727 48.6621,23.4727 48.5,25.5C 46.8967,25.6882 45.5634,25.1882 44.5,24C 45.464,22.2745 46.1307,20.4412 46.5,18.5 Z"/></g>
</svg>
